<svg width="768" height="122" viewBox="0 0 768 122" fill="none" xmlns="http://www.w3.org/2000/svg">
<path fill-rule="evenodd" clip-rule="evenodd" d="M61 122C94.6894 122 122 94.6894 122 61C122 27.3106 94.6894 0 61 0C27.3106 0 0 27.3106 0 61C0 94.6894 27.3106 122 61 122ZM65.4145 26.0885C69.1852 24.516 71.8355 20.7945 71.8355 16.4539C71.8355 10.6913 67.164 6.01972 61.4013 6.01972C55.6387 6.01972 50.9671 10.6913 50.9671 16.4539C50.9671 20.7945 53.6175 24.516 57.3882 26.0885V33.3092H37.7266C36.1542 29.5385 32.4327 26.8881 28.0921 26.8881C22.3294 26.8881 17.6579 31.5597 17.6579 37.3223C17.6579 43.085 22.3294 47.7565 28.0921 47.7565C32.4326 47.7565 36.1542 45.1062 37.7266 41.3355H57.3882V56.9868H26.0885C24.516 53.2161 20.7945 50.5658 16.454 50.5658C10.6913 50.5658 6.01974 55.2373 6.01974 61C6.01974 66.7626 10.6913 71.4342 16.454 71.4342C20.7945 71.4342 24.516 68.7838 26.0885 65.0132H57.3882V80.6644H37.5492C35.8864 77.1084 32.277 74.6447 28.0921 74.6447C22.3294 74.6447 17.6579 79.3163 17.6579 85.0789C17.6579 90.8416 22.3294 95.5131 28.0921 95.5131C32.5851 95.5131 36.4148 92.6733 37.8843 88.6908H57.3882V96.3128C53.6175 97.8853 50.9671 101.607 50.9671 105.947C50.9671 111.71 55.6387 116.382 61.4013 116.382C67.164 116.382 71.8355 111.71 71.8355 105.947C71.8355 101.607 69.1852 97.8853 65.4145 96.3128V88.6908H84.1157C85.5852 92.6733 89.4149 95.5131 93.9079 95.5131C99.6706 95.5131 104.342 90.8416 104.342 85.0789C104.342 79.3163 99.6706 74.6447 93.9079 74.6447C89.723 74.6447 86.1136 77.1084 84.4508 80.6644H65.4145V65.0132H96.3128C97.8853 68.7838 101.607 71.4342 105.947 71.4342C111.71 71.4342 116.382 66.7626 116.382 61C116.382 55.2373 111.71 50.5658 105.947 50.5658C101.607 50.5658 97.8853 53.2161 96.3128 56.9868H65.4145V41.3355H84.2734C85.8458 45.1062 89.5674 47.7565 93.9079 47.7565C99.6706 47.7565 104.342 43.085 104.342 37.3223C104.342 31.5597 99.6706 26.8881 93.9079 26.8881C89.5673 26.8881 85.8458 29.5385 84.2734 33.3092H65.4145V26.0885Z" fill="white"/>
<path d="M217.943 42.4576C217.943 26.9626 208.026 21.4877 193.357 21.4877H161.954V97H194.597C208.233 97 221.042 91.9383 221.042 75.1004C221.042 67.043 215.154 59.812 208.439 57.5394C214.017 55.2668 217.943 49.2754 217.943 42.4576ZM178.379 51.4447V35.6398H193.771C198.109 35.6398 201.518 39.152 201.518 43.0774C201.518 47.0028 199.452 51.4447 193.667 51.4447H178.379ZM194.597 82.8479H178.379V65.7001H194.287C201.311 65.7001 204.72 69.7288 204.72 74.274C204.72 78.7159 201.311 82.8479 194.597 82.8479ZM250.702 25.8263C250.702 21.2811 246.88 17.5623 242.231 17.5623C237.479 17.5623 233.554 21.2811 233.554 25.8263C233.554 30.4748 237.479 34.1936 242.231 34.1936C246.88 34.1936 250.702 30.4748 250.702 25.8263ZM234.484 97H249.979V40.2883H234.484V97ZM295.708 39.152C290.647 39.152 284.345 41.4246 280.523 45.2467V40.185H265.131V97H280.523V66.9397C280.213 54.5437 287.134 51.9612 291.37 51.9612C297.361 51.9612 302.319 54.647 302.319 63.4275V97H318.124V63.4275C318.124 48.6556 312.133 39.152 295.708 39.152ZM376.303 97H391.592V18.9052H376.303V46.0731C373.411 42.251 367.316 38.9454 359.052 38.9454C341.078 38.9454 330.541 52.2711 330.541 68.5925C330.541 84.9139 341.078 98.2396 359.052 98.2396C367.11 98.2396 373.927 94.5208 376.303 91.3185V97ZM376.923 68.5925C376.923 78.5093 370.932 84.604 361.325 84.604C351.821 84.604 345.726 77.5796 345.726 68.5925C345.726 59.2955 351.511 52.4777 361.325 52.4777C370.932 52.4777 376.923 59.1922 376.923 68.5925ZM435.07 98.4462C451.701 98.4462 459.345 88.3228 461.618 85.2238L449.635 78.3027C447.879 80.2654 443.644 84.9139 435.07 84.9139C431.971 84.9139 421.434 83.8809 419.575 74.5839H464.407C464.407 74.5839 464.717 71.7948 464.717 67.4562C464.2 49.1721 449.635 39.2553 435.07 39.2553C424.43 39.2553 404.183 45.4533 404.183 68.7991C404.183 92.1449 424.017 98.4462 435.07 98.4462ZM434.966 52.7876C442.714 52.7876 447.776 58.4691 448.395 63.6341H419.988C420.608 57.8493 426.083 52.7876 434.966 52.7876ZM511.787 54.2338V39.152C507.758 39.0487 498.151 40.0817 492.366 47.7259V40.185H476.975V97H492.366V71.8981C492.366 54.647 508.068 53.9239 511.787 54.2338ZM577.778 42.4576C577.778 26.9626 567.861 21.4877 553.192 21.4877H521.789V97H554.432C568.068 97 580.877 91.9383 580.877 75.1004C580.877 67.043 574.989 59.812 568.274 57.5394C573.852 55.2668 577.778 49.2754 577.778 42.4576ZM538.214 51.4447V35.6398H553.606C557.944 35.6398 561.353 39.152 561.353 43.0774C561.353 47.0028 559.287 51.4447 553.502 51.4447H538.214ZM554.432 82.8479H538.214V65.7001H554.122C561.146 65.7001 564.555 69.7288 564.555 74.274C564.555 78.7159 561.146 82.8479 554.432 82.8479ZM619.007 118.28L650.721 40.3916H632.85L619.627 76.5466L605.268 40.3916H587.398L611.776 94.934L601.963 118.28H619.007ZM679.084 52.7876H690.447V39.2553H679.084V24.0702H663.796V39.2553H656.875V52.7876H663.796V84.2941C663.796 96.2769 671.13 98.4462 683.113 98.4462C685.282 98.4462 688.175 98.2396 690.034 98.033V85.0172C689.104 85.1205 687.865 85.2238 686.109 85.2238C679.188 85.2238 679.084 79.8522 679.084 76.7532V52.7876ZM730.544 98.4462C747.175 98.4462 754.819 88.3228 757.092 85.2238L745.109 78.3027C743.353 80.2654 739.118 84.9139 730.544 84.9139C727.445 84.9139 716.908 83.8809 715.049 74.5839H759.881C759.881 74.5839 760.191 71.7948 760.191 67.4562C759.675 49.1721 745.109 39.2553 730.544 39.2553C719.904 39.2553 699.657 45.4533 699.657 68.7991C699.657 92.1449 719.491 98.4462 730.544 98.4462ZM730.441 52.7876C738.188 52.7876 743.25 58.4691 743.87 63.6341H715.462C716.082 57.8493 721.557 52.7876 730.441 52.7876Z" fill="white"/>
</svg>
