<?xml version="1.0" encoding="UTF-8"?>
<svg width="500px" height="500px" viewBox="0 0 500 500" version="1.1" xmlns="http://www.w3.org/2000/svg" xmlns:xlink="http://www.w3.org/1999/xlink">
    <!-- Generator: Sketch 63.1 (92452) - https://sketch.com -->
    <title>tokopedia</title>
    <desc>Created with Sketch.</desc>
    <g id="Page-1" stroke="none" stroke-width="1" fill="none" fill-rule="evenodd">
        <g id="tokopedia">
            <rect id="Rectangle" fill="#FFFFFF" x="0" y="0" width="500" height="500"></rect>
            <g transform="translate(55.000000, 208.000000)" fill="#42B549" id="Shape">
                <path d="M208.50375,59.160075 C204.265425,63.46665 199.195425,65.63115 193.3191,65.63115 C188.56695,65.63115 184.5285,64.661025 180.407175,62.2635 L180.407175,52.391625 C183.722175,54.6429 187.88835,56.786925 191.996025,56.786925 C200.56725,56.786925 205.669425,50.880375 205.669425,42.51 C205.669425,34.1328 200.392725,28.05075 191.8176,28.05075 C187.9878,28.05075 184.8834,29.4294 182.458575,32.19255 C179.859225,35.1858 178.515675,39.4641 178.515675,45.12105 L178.515675,84.102525 L177.870225,84.102525 C173.145375,84.102525 169.317525,80.2698 169.317525,75.540075 L169.317525,43.657575 C169.317525,30.128475 177.577725,19.204575 191.775675,19.204575 C198.785925,19.204575 204.479925,21.605025 208.797225,26.427375 C212.85615,30.93285 214.867575,36.641475 214.867575,43.511325 C214.867575,49.624575 212.745,54.850575 208.50375,59.160075 L208.50375,59.160075 Z M308.091225,58.82955 C303.869475,63.368175 298.436775,65.63115 291.849675,65.63115 C284.895975,65.63115 279.23025,63.2307 274.917825,58.409325 C270.861825,53.848275 268.84845,48.134775 268.84845,41.327325 C268.84845,29.276325 278.13825,19.204575 290.3628,19.204575 C295.0779,19.204575 299.171925,20.202 303.307875,22.472775 L303.307875,32.448 C299.992875,30.19575 295.827675,28.051725 291.72,28.051725 C283.148775,28.051725 278.04465,33.9573 278.04465,42.3306 C278.04465,50.589825 283.445175,56.7879 291.894525,56.7879 C295.7214,56.7879 298.8726,55.351725 301.39395,52.4589 C303.898725,49.585575 305.20035,45.36285 305.20035,39.6903 L305.20035,8.660925 C305.20035,3.930225 309.03015,0.098475 313.752075,0.098475 L314.3985,0.098475 L314.3985,41.145 C314.3985,48.37365 312.309075,54.290925 308.091225,58.82955 L308.091225,58.82955 Z M334.065225,14.8239 C333.099975,15.90615 331.71645,16.404375 330.028725,16.404375 C326.869725,16.404375 324.611625,14.07315 324.611625,10.9356 C324.611625,7.724925 326.828775,5.5575 330.02775,5.5575 C333.1068,5.5575 335.44485,7.8429 335.44485,10.9356 C335.44485,12.46635 334.99635,13.777725 334.065225,14.8239 L334.065225,14.8239 Z M380.7999,39.689325 C380.7999,36.058425 379.428075,33.184125 376.672725,31.00695 C374.1894,29.0472 371.0889,28.05075 367.31565,28.05075 C358.9911,28.05075 353.64615,34.566675 353.64615,42.60165 C353.64615,50.3334 359.3109,56.786925 367.2279,56.786925 C372.7347,56.786925 375.6792,53.5665 378.819675,49.554375 L378.819675,61.121775 C377.220675,62.322 375.379875,63.63045 373.50105,64.39875 C371.518875,65.2275 369.15255,65.63115 366.417675,65.63115 C353.17815,65.63115 344.448,54.65265 344.448,41.964975 C344.448,35.450025 346.469175,30.064125 350.53785,25.863825 C354.85515,21.41295 360.518925,19.204575 367.451175,19.204575 C380.596125,19.204575 390,26.7618 390,40.416675 L390,64.721475 L389.3565,64.721475 C384.6297,64.721475 380.7999,60.887775 380.7999,56.157075 L380.7999,39.689325 Z M254.8884,37.080225 C253.7262,33.4815 252.268575,31.709925 248.9175,29.835975 C240.9459,25.3773 233.10105,29.172975 229.451625,37.0461 L254.8884,37.080225 Z M247.869375,65.495625 C241.995,66.745575 236.229825,65.7813 230.606025,62.634 C225.118725,59.56665 221.444925,55.004625 219.60315,48.9762 C215.8806,36.783825 223.50705,23.1972 235.7745,19.90755 C241.855575,18.27735 247.686075,19.015425 253.22505,22.113975 C262.42515,27.263925 265.778175,35.2287 265.1922,45.49155 L228.13635,45.41745 C228.68235,49.603125 231.2739,52.87815 234.917475,54.914925 C238.610775,56.981925 242.005725,57.475275 245.154975,56.49735 C248.655225,55.39755 251.492475,52.53885 253.8003,49.8771 L261.35265,55.386825 C258.27165,60.905325 254.07915,64.171575 247.869375,65.495625 L247.869375,65.495625 Z M325.42965,20.1162 L334.62585,20.1162 L334.62585,64.7205 L333.979425,64.7205 C329.25945,64.7205 325.428675,60.8868 325.428675,56.1561 L325.42965,20.1162 Z M13.46085,64.7205 C4.464525,64.7205 0,58.594575 0,50.037 L0,17.57925 C0,12.8505 3.8298,9.015825 8.553675,9.015825 L9.199125,9.015825 L9.199125,20.117175 L24.73965,20.117175 L24.73965,28.962375 L9.19815,28.962375 L9.19815,51.063675 C9.19815,54.8223 10.874175,55.87725 14.460225,55.87725 L24.73965,55.87725 L24.73965,64.72245 L13.46085,64.7205 Z M66.878175,59.082075 C62.334675,63.444225 56.872725,65.630175 50.527425,65.630175 C44.2416,65.630175 38.81085,63.442275 34.26735,59.082075 C29.70825,54.704325 27.435525,49.1322 27.435525,42.41835 C27.435525,29.31825 37.425375,19.20555 50.527425,19.20555 C56.816175,19.20555 62.26155,21.40905 66.833325,25.801425 C71.4207,30.206475 73.712925,35.762025 73.712925,42.41835 C73.712925,49.1322 71.437275,54.70335 66.878175,59.082075 Z M109.8825,30.849 C108.5331,33.1149 107.486925,34.73925 106.7508,35.721075 C105.9396,36.7887 105.13815,37.641825 104.3445,38.230725 C110.7366,40.297725 113.11755,44.732025 113.11755,51.33765 L113.11755,64.7205 L112.4721,64.7205 C107.748225,64.7205 103.918425,60.8868 103.918425,56.1561 L103.918425,52.245375 C103.918425,47.96805 102.00255,45.06645 97.4766,45.06645 L89.123775,45.06645 L89.123775,64.7205 L88.47735,64.7205 C83.75445,64.7205 79.927575,60.8868 79.927575,56.1561 L79.927575,8.660925 C79.927575,3.930225 83.75445,0.098475 88.478325,0.098475 L89.123775,0.098475 L89.123775,36.13155 L91.842075,36.13155 C94.829475,36.13155 96.79215,35.1078 97.91925,33.172425 L105.64515,20.11815 L116.1264,20.1084 L109.8825,30.849 Z M157.36305,59.08305 C152.8176,63.4452 147.35565,65.63115 141.011325,65.63115 C134.726475,65.63115 129.295725,63.44325 124.750275,59.08305 C120.191175,54.7053 117.91845,49.133175 117.91845,42.419325 C117.91845,29.319225 127.909275,19.206525 141.011325,19.206525 C147.300075,19.206525 152.744475,21.410025 157.317225,25.8024 C161.905575,30.20745 164.19585,35.763 164.19585,42.419325 C164.19585,49.133175 161.92215,54.704325 157.36305,59.08305 Z M150.7233,32.0385 C148.1883,29.383575 144.96885,28.05075 141.011325,28.05075 C132.54735,28.05075 127.4793,34.229325 127.4793,42.419325 C127.4793,50.49525 132.667275,56.786925 141.011325,56.786925 C149.357325,56.786925 154.54335,50.49525 154.54335,42.419325 C154.54335,38.131275 153.25635,34.6905 150.724275,32.0385 L150.7233,32.0385 Z M60.240375,32.0385 C57.705375,29.383575 54.485925,28.05075 50.529375,28.05075 C42.064425,28.05075 36.99735,34.229325 36.99735,42.419325 C36.99735,50.49525 42.18435,56.786925 50.5284,56.786925 C58.8744,56.786925 64.05945,50.49525 64.05945,42.419325 C64.05945,38.131275 62.7744,34.6905 60.240375,32.0385 Z"></path>
            </g>
        </g>
    </g>
</svg>